HIERARCHY
ROOT joint_Root
{
	OFFSET 0.0 0.0 0.0
	CHANNELS 6 Xposition Yposition Zposition Zrotation Xrotation Yrotation 
	JOINT Hips
	{
		OFFSET -17.1583 93.1646 452.98
		CHANNELS 6 Xposition Yposition Zposition Zrotation Xrotation Yrotation 
		JOINT Spine
		{
			OFFSET 15.7357 0.0 0.0
			CHANNELS 6 Xposition Yposition Zposition Zrotation Xrotation Yrotation 
			JOINT Chest
			{
				OFFSET 8.98455 -0.406207 0.0
				CHANNELS 6 Xposition Yposition Zposition Zrotation Xrotation Yrotation 
				JOINT Neck
				{
					OFFSET 16.3773 0.0 0.0
					CHANNELS 6 Xposition Yposition Zposition Zrotation Xrotation Yrotation 
					JOINT Head
					{
						OFFSET 6.45672 0.0 0.0
						CHANNELS 6 Xposition Yposition Zposition Zrotation Xrotation Yrotation 
						End Site
						{
							OFFSET 0.0 0.0 0.0
						}
					}
				}
				JOINT Shoulder_L
				{
					OFFSET 12.9942 -0.242716 4.98039
					CHANNELS 6 Xposition Yposition Zposition Zrotation Xrotation Yrotation 
					JOINT UpperArm_L
					{
						OFFSET 5.34809 0.0 0.0
						CHANNELS 6 Xposition Yposition Zposition Zrotation Xrotation Yrotation 
						JOINT LowerArm_L
						{
							OFFSET 24.3286 1.87007e-05 0.0
							CHANNELS 6 Xposition Yposition Zposition Zrotation Xrotation Yrotation 
							JOINT Hand_L
							{
								OFFSET 22.2916 0.0 0.0
								CHANNELS 6 Xposition Yposition Zposition Zrotation Xrotation Yrotation 
								End Site
								{
									OFFSET 0.0 0.0 0.0
								}
							}
						}
					}
				}
				JOINT Shoulder_R
				{
					OFFSET 12.9945 -0.242716 -4.98039
					CHANNELS 6 Xposition Yposition Zposition Zrotation Xrotation Yrotation 
					JOINT UpperArm_R
					{
						OFFSET -5.34813 0.0 0.0
						CHANNELS 6 Xposition Yposition Zposition Zrotation Xrotation Yrotation 
						JOINT LowerArm_R
						{
							OFFSET -24.3289 0.000322201 0.0
							CHANNELS 6 Xposition Yposition Zposition Zrotation Xrotation Yrotation 
							JOINT Hand_R
							{
								OFFSET -22.2915 -0.000108084 0.0
								CHANNELS 6 Xposition Yposition Zposition Zrotation Xrotation Yrotation 
								End Site
								{
									OFFSET 0.0 0.0 0.0
								}
							}
						}
					}
				}
			}
		}
		JOINT UpperLeg_L
		{
			OFFSET -2.19248 -6.46944 0.0
			CHANNELS 6 Xposition Yposition Zposition Zrotation Xrotation Yrotation 
			JOINT LowerLeg_L
			{
				OFFSET 39.0811 0.0 -1.23785e-05
				CHANNELS 6 Xposition Yposition Zposition Zrotation Xrotation Yrotation 
				JOINT Foot_L
				{
					OFFSET 40.9854 0.0 -1.26872e-05
					CHANNELS 6 Xposition Yposition Zposition Zrotation Xrotation Yrotation 
					JOINT Toes_L
					{
						OFFSET 11.7543 0.0 0.0
						CHANNELS 6 Xposition Yposition Zposition Zrotation Xrotation Yrotation 
						End Site
						{
							OFFSET 0.0 0.0 0.0
						}
					}
				}
			}
		}
		JOINT UpperLeg_R
		{
			OFFSET -2.19251 6.46944 0.0
			CHANNELS 6 Xposition Yposition Zposition Zrotation Xrotation Yrotation 
			JOINT LowerLeg_R
			{
				OFFSET -39.0811 -0.00228153 -0.0401928
				CHANNELS 6 Xposition Yposition Zposition Zrotation Xrotation Yrotation 
				JOINT Foot_R
				{
					OFFSET -40.9854 0.0 0.0
					CHANNELS 6 Xposition Yposition Zposition Zrotation Xrotation Yrotation 
					JOINT Toes_R
					{
						OFFSET -11.7543 0.0 0.0
						CHANNELS 6 Xposition Yposition Zposition Zrotation Xrotation Yrotation 
						End Site
						{
							OFFSET 0.0 0.0 0.0
						}
					}
				}
			}
		}
	}
}
MOTION
Frames:	6
Frame Time:	0.0333333
0.000000 0.000000 0.000000 0.000000 0.000000 -0.000000 1.243480 93.084000 -2.085930 88.174700 -1.284590 4.346680 15.735700 0.000005 -0.000001 107.406000 86.750300 -107.496000 8.984550 -0.406207 -0.000000 -1.562950 1.951150 -0.154696 16.377300 -0.000001 -0.000001 3.232570 2.673250 1.008310 6.456720 -0.000001 -0.000000 4.585830 2.984650 5.763820 12.994200 -0.242716 4.980390 -92.320100 6.774520 -71.044400 5.348090 -0.000007 -0.000001 -70.532700 16.125100 -4.236010 24.328600 0.000019 0.000005 7.124810 21.099000 -19.148500 22.291600 -0.000001 0.000005 -4.503390 5.010560 7.093860 12.994500 -0.242716 -4.980390 88.657400 5.041810 -75.067300 -5.348130 -0.000001 -0.000004 -73.431600 25.278800 -1.639060 -24.328900 0.000322 -0.000009 0.347119 1.407950 -13.891300 -22.291500 -0.000108 -0.000004 2.183360 5.256160 1.269370 -2.192480 -6.469440 -0.000000 -174.837000 -5.529570 -0.254208 39.081100 -0.000007 -0.000012 0.039775 -0.120755 18.231400 40.985400 -0.000006 -0.000013 0.196078 10.331900 -68.210900 11.754300 -0.000000 0.000003 -0.001148 0.185110 -9.067680 -2.192510 6.469440 -0.000001 175.535000 6.484590 -178.111000 -39.081100 -0.002282 -0.040193 0.017027 -0.057333 13.433600 -40.985400 0.000008 0.000006 -6.412720 8.612390 -66.303100 -11.754300 -0.000006 -0.000006 -0.010904 0.277939 -5.279570
0.000000 0.000000 0.000000 0.000000 0.000000 -0.000000 1.186290 93.093600 -2.081970 88.151700 -1.393360 4.067550 15.735700 0.000005 -0.000001 108.492000 86.741600 -108.529000 8.984550 -0.406207 -0.000000 -1.585300 2.069480 -0.044799 16.377300 -0.000001 -0.000001 2.873350 2.586300 1.510040 6.456720 -0.000001 -0.000000 4.093150 3.088520 6.385030 12.994200 -0.242716 4.980390 -92.335800 6.808090 -71.012400 5.348090 -0.000007 -0.000001 -69.023700 13.292100 -6.020310 24.328600 0.000019 0.000005 6.739990 22.926300 -16.876700 22.291600 -0.000001 0.000005 -6.954430 5.056690 6.089120 12.994500 -0.242716 -4.980390 88.719800 4.854830 -75.208100 -5.348130 -0.000001 -0.000004 -73.443500 25.038700 -1.746970 -24.328900 0.000322 -0.000009 0.390320 1.601050 -13.738100 -22.291500 -0.000108 -0.000004 2.410350 5.254730 1.307480 -2.192480 -6.469440 -0.000000 -174.766000 -5.744750 -0.466392 39.081100 -0.000007 -0.000012 0.039605 -0.120824 18.149000 40.985400 -0.000006 -0.000013 0.158615 10.462000 -68.217400 11.754300 -0.000000 0.000003 -0.000991 0.182903 -9.157360 -2.192510 6.469440 -0.000001 175.667000 6.435660 -178.384000 -39.081100 -0.002282 -0.040193 0.018745 -0.064793 13.379900 -40.985400 0.000008 0.000006 -6.221440 8.567510 -66.318600 -11.754300 -0.000006 -0.000006 -0.010692 0.276407 -5.342270
0.000000 0.000000 0.000000 0.000000 0.000000 -0.000000 1.107310 93.106200 -2.076820 88.199200 -1.427950 3.840380 15.735700 0.000005 -0.000001 108.850000 86.725600 -108.805000 8.984550 -0.406207 -0.000000 -1.569490 2.111740 0.119241 16.377300 -0.000001 -0.000001 2.414110 2.508460 2.048220 6.456720 -0.000001 -0.000000 3.611050 3.180480 7.048590 12.994200 -0.242716 4.980390 -92.333000 6.787490 -70.980200 5.348090 -0.000007 -0.000001 -66.979800 10.031200 -8.088040 24.328600 0.000019 0.000005 6.128890 25.130300 -14.189600 22.291600 -0.000001 0.000005 -9.862000 5.091890 5.298930 12.994500 -0.242716 -4.980390 88.767800 4.684520 -75.245300 -5.348130 -0.000001 -0.000004 -73.208000 24.874900 -1.974050 -24.328900 0.000322 -0.000009 0.346941 1.451590 -13.482500 -22.291500 -0.000108 -0.000004 2.472640 5.255320 1.291710 -2.192480 -6.469440 -0.000000 -174.759000 -5.950860 -0.591747 39.081100 -0.000007 -0.000012 0.038875 -0.119721 17.989400 40.985400 -0.000006 -0.000013 0.114300 10.615800 -68.247700 11.754300 -0.000000 0.000003 -0.001265 0.186734 -9.001650 -2.192510 6.469440 -0.000001 175.718000 6.233270 -178.610000 -39.081100 -0.002282 -0.040193 0.020238 -0.071118 13.371500 -40.985400 0.000008 0.000006 -6.182000 8.407040 -66.374200 -11.754300 -0.000006 -0.000006 -0.010891 0.277850 -5.283230
0.000000 0.000000 0.000000 0.000000 0.000000 -0.000000 1.006880 93.121200 -2.039430 88.236000 -1.424580 3.477100 15.735700 0.000005 -0.000001 108.519000 86.766700 -108.327000 8.984550 -0.406207 -0.000000 -1.637950 2.037740 0.413262 16.377300 -0.000001 -0.000001 1.856960 2.427530 2.749770 6.456720 -0.000001 -0.000000 3.201000 3.441240 7.545170 12.994200 -0.242716 4.980390 -92.252500 6.608170 -71.129600 5.348090 -0.000007 -0.000001 -64.859800 4.895740 -10.070800 24.328600 0.000019 0.000005 5.256480 27.488000 -11.272700 22.291600 -0.000001 0.000005 -12.593400 5.103360 5.036550 12.994500 -0.242716 -4.980390 88.814800 4.522370 -75.298400 -5.348130 -0.000001 -0.000004 -72.809600 24.326800 -2.276650 -24.328900 0.000322 -0.000009 0.322507 1.380530 -13.191600 -22.291500 -0.000108 -0.000004 2.577480 5.255040 1.299180 -2.192480 -6.469440 -0.000000 -174.712000 -6.184020 -0.810152 39.081100 -0.000007 -0.000012 0.035064 -0.109546 17.749100 40.985400 -0.000006 -0.000013 0.045235 10.857100 -68.142600 11.754300 -0.000000 0.000003 -0.001114 0.184636 -9.086950 -2.192510 6.469440 -0.000001 175.823000 6.034500 -178.959000 -39.081100 -0.002282 -0.040193 0.021878 -0.078046 13.366600 -40.985400 0.000008 0.000006 -6.204500 8.217160 -66.403300 -11.754300 -0.000006 -0.000006 -0.010589 0.275655 -5.373040
0.000000 0.000000 0.000000 0.000000 0.000000 -0.000000 0.867196 93.148600 -1.992380 88.238000 -1.477260 3.149050 15.735700 0.000005 -0.000001 107.671000 86.820600 -107.255000 8.984550 -0.406207 -0.000000 -1.714190 1.895380 0.859670 16.377300 -0.000001 -0.000001 1.176200 2.411190 3.551600 6.456720 -0.000001 -0.000000 2.790270 3.905230 8.099670 12.994200 -0.242716 4.980390 -92.182100 6.408130 -71.150600 5.348090 -0.000007 -0.000001 -62.569100 -2.191420 -11.942800 24.328600 0.000019 0.000005 3.869930 28.654400 -8.029550 22.291600 -0.000001 0.000005 -13.788000 5.090870 5.322200 12.994500 -0.242716 -4.980390 88.844500 4.409860 -75.302000 -5.348130 -0.000001 -0.000004 -72.219600 23.353900 -2.527350 -24.328900 0.000322 -0.000009 0.362010 1.570640 -13.017100 -22.291500 -0.000108 -0.000004 2.797740 5.252510 1.366390 -2.192480 -6.469440 -0.000000 -174.591000 -6.577650 -0.925594 39.081100 -0.000007 -0.000012 0.030840 -0.098190 17.437000 40.985400 -0.000006 -0.000013 -0.036517 11.204200 -68.137700 11.754300 -0.000000 0.000003 -0.001202 0.185863 -9.037060 -2.192510 6.469440 -0.000001 175.958000 5.885880 -179.207000 -39.081100 -0.002282 -0.040193 0.021576 -0.077634 13.223400 -40.985400 0.000008 0.000006 -6.318710 8.048810 -66.354800 -11.754300 -0.000006 -0.000006 -0.010961 0.278353 -5.262630
0.000000 0.000000 0.000000 0.000000 0.000000 -0.000000 0.703549 93.160400 -1.896930 88.207400 -1.573490 2.715020 15.735700 0.000005 -0.000001 106.446000 86.900800 -105.752000 8.984550 -0.406207 -0.000000 -1.831350 1.696310 1.414870 16.377300 -0.000001 -0.000001 0.325244 2.390620 4.377720 6.456720 -0.000001 -0.000000 2.408860 4.397530 8.948570 12.994200 -0.242716 4.980390 -92.064200 6.035100 -71.078000 5.348090 -0.000007 -0.000001 -60.414700 -11.154600 -14.077200 24.328600 0.000019 0.000005 2.098250 28.993900 -4.322420 22.291600 -0.000001 0.000005 -13.168100 5.041350 6.427080 12.994500 -0.242716 -4.980390 88.856500 4.358670 -75.284100 -5.348130 -0.000001 -0.000004 -71.472900 22.197100 -2.797490 -24.328900 0.000322 -0.000009 0.403881 1.761760 -12.946300 -22.291500 -0.000108 -0.000004 3.125250 5.254360 1.317200 -2.192480 -6.469440 -0.000000 -174.448000 -7.019930 -1.173400 39.081100 -0.000007 -0.000012 0.026557 -0.085528 17.249800 40.985400 -0.000006 -0.000013 -0.116968 11.496800 -68.184100 11.754300 -0.000000 0.000003 -0.000991 0.182911 -9.157030 -2.192510 6.469440 -0.000001 176.173000 5.701350 -179.532000 -39.081100 -0.002282 -0.040193 0.023608 -0.087026 13.114400 -40.985400 0.000008 0.000006 -6.061350 7.941280 -66.454300 -11.754300 -0.000006 -0.000006 -0.011104 0.279380 -5.220580
